<mxfile host="app.diagrams.net" agent="Mozilla/5.0 (Windows NT 10.0; Win64; x64) AppleWebKit/537.36 (KHTML, like Gecko) Chrome/136.0.0.0 Safari/537.36" version="27.0.3">
  <diagram name="Σελίδα-1" id="U-vYoMnvUL_PouEnx55a">
    <mxGraphModel dx="1453" dy="764" grid="1" gridSize="10" guides="1" tooltips="1" connect="1" arrows="1" fold="1" page="1" pageScale="1" pageWidth="827" pageHeight="1169" math="0" shadow="0">
      <root>
        <mxCell id="0" />
        <mxCell id="1" parent="0" />
        <mxCell id="znNDBFQhQJIco3VUOQmG-1" value="Απλώς Αναγνώστης" style="shape=umlActor;verticalLabelPosition=bottom;verticalAlign=top;html=1;" parent="1" vertex="1">
          <mxGeometry x="170" y="190" width="30" height="60" as="geometry" />
        </mxCell>
        <mxCell id="znNDBFQhQJIco3VUOQmG-4" value="" style="endArrow=none;html=1;rounded=0;entryX=-0.01;entryY=0.5;entryDx=0;entryDy=0;entryPerimeter=0;" parent="1" source="znNDBFQhQJIco3VUOQmG-1" target="znNDBFQhQJIco3VUOQmG-10" edge="1">
          <mxGeometry width="50" height="50" relative="1" as="geometry">
            <mxPoint x="390" y="300" as="sourcePoint" />
            <mxPoint x="310" y="130" as="targetPoint" />
          </mxGeometry>
        </mxCell>
        <mxCell id="znNDBFQhQJIco3VUOQmG-5" value="&lt;font style=&quot;font-size: 11px;&quot;&gt;Επιλογή Διαχείρισης Πόντων&lt;/font&gt;&lt;div&gt;&lt;font style=&quot;font-size: 11px;&quot;&gt;και Εξαργύρωση&lt;/font&gt;&lt;/div&gt;" style="text;html=1;align=center;verticalAlign=middle;resizable=0;points=[];autosize=1;strokeColor=none;fillColor=none;rotation=-30;" parent="1" vertex="1">
          <mxGeometry x="160" y="120" width="160" height="40" as="geometry" />
        </mxCell>
        <mxCell id="znNDBFQhQJIco3VUOQmG-6" value="Εμφάνιση&amp;nbsp; Υπόλοιπων Πόντων" style="ellipse;shape=umlControl;whiteSpace=wrap;html=1;" parent="1" vertex="1">
          <mxGeometry x="490" y="70" width="70" height="80" as="geometry" />
        </mxCell>
        <mxCell id="znNDBFQhQJIco3VUOQmG-7" value="" style="endArrow=none;html=1;rounded=0;entryX=0.986;entryY=0.538;entryDx=0;entryDy=0;entryPerimeter=0;exitX=0;exitY=0.5;exitDx=0;exitDy=0;" parent="1" source="znNDBFQhQJIco3VUOQmG-8" target="znNDBFQhQJIco3VUOQmG-6" edge="1">
          <mxGeometry width="50" height="50" relative="1" as="geometry">
            <mxPoint x="590" y="70" as="sourcePoint" />
            <mxPoint x="331" y="132" as="targetPoint" />
          </mxGeometry>
        </mxCell>
        <mxCell id="znNDBFQhQJIco3VUOQmG-8" value="Βάση Δεδομένων" style="ellipse;shape=umlEntity;whiteSpace=wrap;html=1;" parent="1" vertex="1">
          <mxGeometry x="660" y="70" width="80" height="80" as="geometry" />
        </mxCell>
        <mxCell id="znNDBFQhQJIco3VUOQmG-9" value="" style="endArrow=none;html=1;rounded=0;exitX=1.01;exitY=0.463;exitDx=0;exitDy=0;exitPerimeter=0;" parent="1" source="znNDBFQhQJIco3VUOQmG-10" target="znNDBFQhQJIco3VUOQmG-6" edge="1">
          <mxGeometry width="50" height="50" relative="1" as="geometry">
            <mxPoint x="360" y="190" as="sourcePoint" />
            <mxPoint x="331" y="132" as="targetPoint" />
          </mxGeometry>
        </mxCell>
        <mxCell id="znNDBFQhQJIco3VUOQmG-10" value="" style="shape=umlBoundary;whiteSpace=wrap;html=1;" parent="1" vertex="1">
          <mxGeometry x="314" y="80" width="100" height="80" as="geometry" />
        </mxCell>
        <mxCell id="znNDBFQhQJIco3VUOQmG-11" value="" style="endArrow=none;html=1;rounded=0;entryX=0.286;entryY=1;entryDx=0;entryDy=0;entryPerimeter=0;" parent="1" source="znNDBFQhQJIco3VUOQmG-12" target="znNDBFQhQJIco3VUOQmG-6" edge="1">
          <mxGeometry width="50" height="50" relative="1" as="geometry">
            <mxPoint x="430" y="210" as="sourcePoint" />
            <mxPoint x="569" y="123" as="targetPoint" />
          </mxGeometry>
        </mxCell>
        <mxCell id="znNDBFQhQJIco3VUOQmG-12" value="" style="shape=umlBoundary;whiteSpace=wrap;html=1;" parent="1" vertex="1">
          <mxGeometry x="370" y="210" width="100" height="80" as="geometry" />
        </mxCell>
        <mxCell id="znNDBFQhQJIco3VUOQmG-13" value="" style="endArrow=none;html=1;rounded=0;exitX=-0.04;exitY=0.525;exitDx=0;exitDy=0;exitPerimeter=0;" parent="1" source="znNDBFQhQJIco3VUOQmG-12" edge="1">
          <mxGeometry width="50" height="50" relative="1" as="geometry">
            <mxPoint x="429" y="222" as="sourcePoint" />
            <mxPoint x="210" y="220" as="targetPoint" />
          </mxGeometry>
        </mxCell>
        <mxCell id="znNDBFQhQJIco3VUOQmG-14" value="Homepage" style="text;html=1;align=center;verticalAlign=middle;resizable=0;points=[];autosize=1;strokeColor=none;fillColor=none;" parent="1" vertex="1">
          <mxGeometry x="330" y="48" width="80" height="30" as="geometry" />
        </mxCell>
        <mxCell id="znNDBFQhQJIco3VUOQmG-15" value="Available Points" style="text;html=1;align=center;verticalAlign=middle;resizable=0;points=[];autosize=1;strokeColor=none;fillColor=none;" parent="1" vertex="1">
          <mxGeometry x="365" y="180" width="110" height="30" as="geometry" />
        </mxCell>
        <mxCell id="znNDBFQhQJIco3VUOQmG-16" value="" style="endArrow=none;html=1;rounded=0;" parent="1" source="znNDBFQhQJIco3VUOQmG-12" target="znNDBFQhQJIco3VUOQmG-17" edge="1">
          <mxGeometry width="50" height="50" relative="1" as="geometry">
            <mxPoint x="429" y="252" as="sourcePoint" />
            <mxPoint x="500" y="257" as="targetPoint" />
          </mxGeometry>
        </mxCell>
        <mxCell id="znNDBFQhQJIco3VUOQmG-17" value="Εξαργύρωση&lt;div&gt;πόντων&lt;/div&gt;" style="ellipse;shape=umlControl;whiteSpace=wrap;html=1;" parent="1" vertex="1">
          <mxGeometry x="530" y="140" width="90" height="90" as="geometry" />
        </mxCell>
        <mxCell id="znNDBFQhQJIco3VUOQmG-18" value="" style="endArrow=none;html=1;rounded=0;entryX=1;entryY=0.767;entryDx=0;entryDy=0;entryPerimeter=0;exitX=0.178;exitY=0.211;exitDx=0;exitDy=0;exitPerimeter=0;" parent="1" source="znNDBFQhQJIco3VUOQmG-19" target="znNDBFQhQJIco3VUOQmG-17" edge="1">
          <mxGeometry width="50" height="50" relative="1" as="geometry">
            <mxPoint x="640" y="320" as="sourcePoint" />
            <mxPoint x="510" y="266" as="targetPoint" />
          </mxGeometry>
        </mxCell>
        <mxCell id="znNDBFQhQJIco3VUOQmG-19" value="Έλεγχος Επάρκειας πόντων προς εξαργύρωση" style="ellipse;shape=umlControl;whiteSpace=wrap;html=1;" parent="1" vertex="1">
          <mxGeometry x="620" y="270" width="90" height="90" as="geometry" />
        </mxCell>
        <mxCell id="znNDBFQhQJIco3VUOQmG-20" value="" style="endArrow=none;html=1;rounded=0;exitX=0;exitY=0.544;exitDx=0;exitDy=0;exitPerimeter=0;" parent="1" source="znNDBFQhQJIco3VUOQmG-19" target="znNDBFQhQJIco3VUOQmG-21" edge="1">
          <mxGeometry width="50" height="50" relative="1" as="geometry">
            <mxPoint x="646" y="339" as="sourcePoint" />
            <mxPoint x="530" y="360" as="targetPoint" />
          </mxGeometry>
        </mxCell>
        <mxCell id="znNDBFQhQJIco3VUOQmG-21" value="Εμφάνιση Μηνύματος Επιβεβαίωσης" style="ellipse;shape=umlControl;whiteSpace=wrap;html=1;" parent="1" vertex="1">
          <mxGeometry x="440" y="290" width="90" height="90" as="geometry" />
        </mxCell>
        <mxCell id="znNDBFQhQJIco3VUOQmG-22" value="" style="shape=umlBoundary;whiteSpace=wrap;html=1;" parent="1" vertex="1">
          <mxGeometry x="230" y="320" width="100" height="80" as="geometry" />
        </mxCell>
        <mxCell id="znNDBFQhQJIco3VUOQmG-23" value="Available&amp;nbsp;&lt;div&gt;Points&lt;/div&gt;" style="text;html=1;align=center;verticalAlign=middle;resizable=0;points=[];autosize=1;strokeColor=none;fillColor=none;" parent="1" vertex="1">
          <mxGeometry x="265" y="280" width="80" height="40" as="geometry" />
        </mxCell>
        <mxCell id="znNDBFQhQJIco3VUOQmG-24" value="" style="endArrow=none;html=1;rounded=0;entryX=0.6;entryY=0.617;entryDx=0;entryDy=0;entryPerimeter=0;" parent="1" source="znNDBFQhQJIco3VUOQmG-22" target="znNDBFQhQJIco3VUOQmG-1" edge="1">
          <mxGeometry width="50" height="50" relative="1" as="geometry">
            <mxPoint x="326" y="252" as="sourcePoint" />
            <mxPoint x="220" y="230" as="targetPoint" />
            <Array as="points">
              <mxPoint x="270" y="260" />
            </Array>
          </mxGeometry>
        </mxCell>
        <mxCell id="znNDBFQhQJIco3VUOQmG-25" value="" style="endArrow=none;html=1;rounded=0;exitX=1;exitY=0.45;exitDx=0;exitDy=0;exitPerimeter=0;" parent="1" source="znNDBFQhQJIco3VUOQmG-22" target="znNDBFQhQJIco3VUOQmG-21" edge="1">
          <mxGeometry width="50" height="50" relative="1" as="geometry">
            <mxPoint x="429" y="259" as="sourcePoint" />
            <mxPoint x="510" y="263" as="targetPoint" />
          </mxGeometry>
        </mxCell>
        <mxCell id="znNDBFQhQJIco3VUOQmG-26" value="Voucher" style="ellipse;shape=umlEntity;whiteSpace=wrap;html=1;" parent="1" vertex="1">
          <mxGeometry x="345" y="420" width="80" height="80" as="geometry" />
        </mxCell>
        <mxCell id="znNDBFQhQJIco3VUOQmG-27" value="Προβολή διαθέσιμων&amp;nbsp;&lt;div&gt;πόντων και Εξαργύρωση&lt;/div&gt;" style="text;html=1;align=center;verticalAlign=middle;resizable=0;points=[];autosize=1;strokeColor=none;fillColor=none;rotation=10;" parent="1" vertex="1">
          <mxGeometry x="210" y="190" width="160" height="40" as="geometry" />
        </mxCell>
        <mxCell id="znNDBFQhQJIco3VUOQmG-29" value="" style="endArrow=none;html=1;rounded=0;exitX=0.9;exitY=0.875;exitDx=0;exitDy=0;exitPerimeter=0;entryX=0.114;entryY=0.37;entryDx=0;entryDy=0;entryPerimeter=0;" parent="1" source="znNDBFQhQJIco3VUOQmG-22" target="znNDBFQhQJIco3VUOQmG-30" edge="1">
          <mxGeometry width="50" height="50" relative="1" as="geometry">
            <mxPoint x="410" y="356" as="sourcePoint" />
            <mxPoint x="440" y="430" as="targetPoint" />
          </mxGeometry>
        </mxCell>
        <mxCell id="znNDBFQhQJIco3VUOQmG-30" value="Δημιουργία Voucher" style="ellipse;shape=umlControl;whiteSpace=wrap;html=1;" parent="1" vertex="1">
          <mxGeometry x="640" y="390" width="90" height="90" as="geometry" />
        </mxCell>
        <mxCell id="znNDBFQhQJIco3VUOQmG-31" value="" style="endArrow=none;html=1;rounded=0;exitX=1;exitY=0.5;exitDx=0;exitDy=0;entryX=0.033;entryY=0.589;entryDx=0;entryDy=0;entryPerimeter=0;" parent="1" source="znNDBFQhQJIco3VUOQmG-26" target="znNDBFQhQJIco3VUOQmG-30" edge="1">
          <mxGeometry width="50" height="50" relative="1" as="geometry">
            <mxPoint x="400" y="390" as="sourcePoint" />
            <mxPoint x="456" y="444" as="targetPoint" />
          </mxGeometry>
        </mxCell>
        <mxCell id="znNDBFQhQJIco3VUOQmG-32" value="" style="endArrow=none;html=1;rounded=0;entryX=0.101;entryY=0.89;entryDx=0;entryDy=0;entryPerimeter=0;" parent="1" source="znNDBFQhQJIco3VUOQmG-33" target="znNDBFQhQJIco3VUOQmG-30" edge="1">
          <mxGeometry width="50" height="50" relative="1" as="geometry">
            <mxPoint x="410" y="530" as="sourcePoint" />
            <mxPoint x="453" y="463" as="targetPoint" />
          </mxGeometry>
        </mxCell>
        <mxCell id="znNDBFQhQJIco3VUOQmG-33" value="Εμφάνιση Μηνύματος Επιτυχούς δημιουργείας Voucher" style="ellipse;shape=umlControl;whiteSpace=wrap;html=1;" parent="1" vertex="1">
          <mxGeometry x="280" y="505" width="110" height="105" as="geometry" />
        </mxCell>
        <mxCell id="znNDBFQhQJIco3VUOQmG-34" value="" style="shape=umlBoundary;whiteSpace=wrap;html=1;" parent="1" vertex="1">
          <mxGeometry x="95" y="450" width="100" height="80" as="geometry" />
        </mxCell>
        <mxCell id="znNDBFQhQJIco3VUOQmG-36" value="Απόκτηση Voucher" style="text;html=1;align=center;verticalAlign=middle;resizable=0;points=[];autosize=1;strokeColor=none;fillColor=none;rotation=-60;" parent="1" vertex="1">
          <mxGeometry x="50" y="320" width="130" height="30" as="geometry" />
        </mxCell>
        <mxCell id="znNDBFQhQJIco3VUOQmG-37" value="Available Points" style="text;html=1;align=center;verticalAlign=middle;resizable=0;points=[];autosize=1;strokeColor=none;fillColor=none;" parent="1" vertex="1">
          <mxGeometry x="110" y="420" width="110" height="30" as="geometry" />
        </mxCell>
        <mxCell id="znNDBFQhQJIco3VUOQmG-38" value="" style="endArrow=none;html=1;rounded=0;exitX=0.163;exitY=0.227;exitDx=0;exitDy=0;exitPerimeter=0;" parent="1" source="znNDBFQhQJIco3VUOQmG-33" target="znNDBFQhQJIco3VUOQmG-34" edge="1">
          <mxGeometry width="50" height="50" relative="1" as="geometry">
            <mxPoint x="455" y="558" as="sourcePoint" />
            <mxPoint x="589" y="507" as="targetPoint" />
          </mxGeometry>
        </mxCell>
        <mxCell id="znNDBFQhQJIco3VUOQmG-39" value="" style="endArrow=none;html=1;rounded=0;exitX=1;exitY=0.632;exitDx=0;exitDy=0;exitPerimeter=0;" parent="1" source="znNDBFQhQJIco3VUOQmG-33" target="znNDBFQhQJIco3VUOQmG-40" edge="1">
          <mxGeometry width="50" height="50" relative="1" as="geometry">
            <mxPoint x="453" y="554" as="sourcePoint" />
            <mxPoint x="600" y="570" as="targetPoint" />
          </mxGeometry>
        </mxCell>
        <mxCell id="znNDBFQhQJIco3VUOQmG-40" value="Αφαίρεση Πόντων" style="ellipse;shape=umlControl;whiteSpace=wrap;html=1;" parent="1" vertex="1">
          <mxGeometry x="520" y="520" width="90" height="90" as="geometry" />
        </mxCell>
        <mxCell id="znNDBFQhQJIco3VUOQmG-41" value="" style="endArrow=none;html=1;rounded=0;" parent="1" source="znNDBFQhQJIco3VUOQmG-8" target="znNDBFQhQJIco3VUOQmG-30" edge="1">
          <mxGeometry width="50" height="50" relative="1" as="geometry">
            <mxPoint x="590" y="460" as="sourcePoint" />
            <mxPoint x="723" y="463" as="targetPoint" />
            <Array as="points">
              <mxPoint x="830" y="160" />
              <mxPoint x="830" y="430" />
            </Array>
          </mxGeometry>
        </mxCell>
        <mxCell id="znNDBFQhQJIco3VUOQmG-42" value="Επαρκές&amp;nbsp;&lt;div&gt;Υπόλοιπο&lt;/div&gt;" style="text;html=1;align=center;verticalAlign=middle;resizable=0;points=[];autosize=1;strokeColor=none;fillColor=none;rotation=0;" parent="1" vertex="1">
          <mxGeometry x="530" y="290" width="80" height="40" as="geometry" />
        </mxCell>
        <mxCell id="znNDBFQhQJIco3VUOQmG-43" value="Έλεγχος για μη εξαργυρωμένα παλαιότερα κουπόνια" style="ellipse;shape=umlControl;whiteSpace=wrap;html=1;" parent="1" vertex="1">
          <mxGeometry x="740" y="484" width="110" height="100" as="geometry" />
        </mxCell>
        <mxCell id="znNDBFQhQJIco3VUOQmG-44" value="" style="endArrow=none;html=1;rounded=0;" parent="1" source="znNDBFQhQJIco3VUOQmG-40" target="znNDBFQhQJIco3VUOQmG-43" edge="1">
          <mxGeometry width="50" height="50" relative="1" as="geometry">
            <mxPoint x="460" y="590" as="sourcePoint" />
            <mxPoint x="610" y="571" as="targetPoint" />
          </mxGeometry>
        </mxCell>
        <mxCell id="znNDBFQhQJIco3VUOQmG-45" value="" style="endArrow=none;html=1;rounded=0;" parent="1" source="znNDBFQhQJIco3VUOQmG-8" target="znNDBFQhQJIco3VUOQmG-43" edge="1">
          <mxGeometry width="50" height="50" relative="1" as="geometry">
            <mxPoint x="712" y="160" as="sourcePoint" />
            <mxPoint x="727" y="393" as="targetPoint" />
            <Array as="points">
              <mxPoint x="1110" y="120" />
              <mxPoint x="1120" y="530" />
            </Array>
          </mxGeometry>
        </mxCell>
        <mxCell id="znNDBFQhQJIco3VUOQmG-46" value="" style="endArrow=none;html=1;rounded=0;entryX=0.174;entryY=0.846;entryDx=0;entryDy=0;entryPerimeter=0;exitX=0.954;exitY=0.566;exitDx=0;exitDy=0;exitPerimeter=0;" parent="1" source="znNDBFQhQJIco3VUOQmG-47" target="znNDBFQhQJIco3VUOQmG-43" edge="1">
          <mxGeometry width="50" height="50" relative="1" as="geometry">
            <mxPoint x="460" y="690" as="sourcePoint" />
            <mxPoint x="751" y="551" as="targetPoint" />
          </mxGeometry>
        </mxCell>
        <mxCell id="znNDBFQhQJIco3VUOQmG-47" value="Αποστολή ειδοποίησης και ενημέρωσης στο χρήστη με Email" style="ellipse;shape=umlControl;whiteSpace=wrap;html=1;" parent="1" vertex="1">
          <mxGeometry x="550" y="630" width="140" height="110" as="geometry" />
        </mxCell>
        <mxCell id="znNDBFQhQJIco3VUOQmG-54" value="&lt;font style=&quot;color: rgb(255, 102, 102);&quot;&gt;Μη Επαρκές&amp;nbsp;&lt;/font&gt;&lt;div&gt;&lt;font style=&quot;color: rgb(255, 102, 102);&quot;&gt;Υπόλοιπο&lt;/font&gt;&lt;/div&gt;" style="text;html=1;align=center;verticalAlign=middle;resizable=0;points=[];autosize=1;strokeColor=none;fillColor=none;rotation=0;" parent="1" vertex="1">
          <mxGeometry x="720" y="280" width="90" height="40" as="geometry" />
        </mxCell>
        <mxCell id="znNDBFQhQJIco3VUOQmG-57" value="Εμφάνιση Μηνύματος&amp;nbsp; Μη Επιτυχούς δημιουργίας Voucher" style="ellipse;shape=umlControl;whiteSpace=wrap;html=1;fontColor=#FF6666;strokeColor=#FF6666;" parent="1" vertex="1">
          <mxGeometry x="330" y="725" width="110" height="95" as="geometry" />
        </mxCell>
        <mxCell id="znNDBFQhQJIco3VUOQmG-58" value="" style="shape=umlBoundary;whiteSpace=wrap;html=1;strokeColor=#FF6666;" parent="1" vertex="1">
          <mxGeometry x="50" y="732.5" width="100" height="80" as="geometry" />
        </mxCell>
        <mxCell id="znNDBFQhQJIco3VUOQmG-59" value="Available Points" style="text;html=1;align=center;verticalAlign=middle;resizable=0;points=[];autosize=1;strokeColor=none;fillColor=none;fontColor=#FF6666;" parent="1" vertex="1">
          <mxGeometry x="80" y="695" width="110" height="30" as="geometry" />
        </mxCell>
        <mxCell id="znNDBFQhQJIco3VUOQmG-60" value="" style="endArrow=none;html=1;rounded=0;strokeColor=#FF6666;" parent="1" source="znNDBFQhQJIco3VUOQmG-58" target="znNDBFQhQJIco3VUOQmG-1" edge="1">
          <mxGeometry width="50" height="50" relative="1" as="geometry">
            <mxPoint x="50" y="730" as="sourcePoint" />
            <mxPoint x="208" y="260" as="targetPoint" />
            <Array as="points">
              <mxPoint x="50" y="640" />
              <mxPoint x="60" y="220" />
            </Array>
          </mxGeometry>
        </mxCell>
        <mxCell id="znNDBFQhQJIco3VUOQmG-61" value="" style="endArrow=none;html=1;rounded=0;strokeColor=#FF6666;" parent="1" source="znNDBFQhQJIco3VUOQmG-57" target="znNDBFQhQJIco3VUOQmG-58" edge="1">
          <mxGeometry width="50" height="50" relative="1" as="geometry">
            <mxPoint x="141" y="767" as="sourcePoint" />
            <mxPoint x="314" y="730" as="targetPoint" />
          </mxGeometry>
        </mxCell>
        <mxCell id="znNDBFQhQJIco3VUOQmG-62" value="Ανεπαρκές&amp;nbsp;&lt;div&gt;Υπόλοιπο&lt;/div&gt;" style="text;html=1;align=center;verticalAlign=middle;resizable=0;points=[];autosize=1;strokeColor=none;fillColor=none;rotation=0;fontColor=#FF6666;" parent="1" vertex="1">
          <mxGeometry x="50" y="185" width="80" height="40" as="geometry" />
        </mxCell>
        <mxCell id="znNDBFQhQJIco3VUOQmG-66" value="" style="endArrow=none;html=1;rounded=0;entryX=0.622;entryY=0.952;entryDx=0;entryDy=0;entryPerimeter=0;fontColor=#FF6666;strokeColor=#FF6666;" parent="1" source="znNDBFQhQJIco3VUOQmG-68" target="znNDBFQhQJIco3VUOQmG-43" edge="1">
          <mxGeometry width="50" height="50" relative="1" as="geometry">
            <mxPoint x="850" y="810" as="sourcePoint" />
            <mxPoint x="769" y="579" as="targetPoint" />
          </mxGeometry>
        </mxCell>
        <mxCell id="znNDBFQhQJIco3VUOQmG-67" value="Ληγμένα Ανεξαργύρωτα&amp;nbsp;&lt;div&gt;Voucher&lt;/div&gt;" style="text;html=1;align=center;verticalAlign=middle;resizable=0;points=[];autosize=1;strokeColor=none;fillColor=none;rotation=0;fontColor=#FF6666;" parent="1" vertex="1">
          <mxGeometry x="800" y="710" width="150" height="40" as="geometry" />
        </mxCell>
        <mxCell id="znNDBFQhQJIco3VUOQmG-68" value="Πίστωση Μισών Πόντων" style="ellipse;shape=umlControl;whiteSpace=wrap;html=1;fontColor=#FF6666;strokeColor=#FF6666;" parent="1" vertex="1">
          <mxGeometry x="760" y="800" width="90" height="90" as="geometry" />
        </mxCell>
        <mxCell id="znNDBFQhQJIco3VUOQmG-69" value="" style="endArrow=none;html=1;rounded=0;exitX=0;exitY=0.556;exitDx=0;exitDy=0;exitPerimeter=0;strokeColor=#FF6666;entryX=1;entryY=0.5;entryDx=0;entryDy=0;entryPerimeter=0;" parent="1" source="znNDBFQhQJIco3VUOQmG-68" target="znNDBFQhQJIco3VUOQmG-72" edge="1">
          <mxGeometry width="50" height="50" relative="1" as="geometry">
            <mxPoint x="367" y="770" as="sourcePoint" />
            <mxPoint x="540" y="890" as="targetPoint" />
          </mxGeometry>
        </mxCell>
        <mxCell id="znNDBFQhQJIco3VUOQmG-71" value="" style="endArrow=none;html=1;rounded=0;strokeColor=#FF6666;" parent="1" source="znNDBFQhQJIco3VUOQmG-8" edge="1" target="znNDBFQhQJIco3VUOQmG-68">
          <mxGeometry width="50" height="50" relative="1" as="geometry">
            <mxPoint x="720" y="330" as="sourcePoint" />
            <mxPoint x="1040" y="210" as="targetPoint" />
            <Array as="points">
              <mxPoint x="1050" y="160" />
              <mxPoint x="1050" y="845" />
            </Array>
          </mxGeometry>
        </mxCell>
        <mxCell id="znNDBFQhQJIco3VUOQmG-72" value="&lt;font style=&quot;color: rgb(255, 102, 102);&quot;&gt;Αποστολή ειδοποίησης&amp;nbsp; στο χρήστη με Email για επιστροφή πόντων&lt;/font&gt;" style="ellipse;shape=umlControl;whiteSpace=wrap;html=1;strokeColor=#FF6666;" parent="1" vertex="1">
          <mxGeometry x="475" y="800" width="125" height="100" as="geometry" />
        </mxCell>
        <mxCell id="54c9WyCeNSj4OFBFOMiX-1" value="" style="endArrow=none;html=1;rounded=0;" parent="1" source="znNDBFQhQJIco3VUOQmG-34" target="znNDBFQhQJIco3VUOQmG-1" edge="1">
          <mxGeometry width="50" height="50" relative="1" as="geometry">
            <mxPoint x="368" y="552" as="sourcePoint" />
            <mxPoint x="205" y="512" as="targetPoint" />
            <Array as="points">
              <mxPoint x="100" y="420" />
            </Array>
          </mxGeometry>
        </mxCell>
        <mxCell id="UI6eoOXxBzs9qtWm-VNA-3" value="" style="endArrow=none;html=1;rounded=0;fontColor=#FF6666;strokeColor=#FF6666;" edge="1" parent="1" source="znNDBFQhQJIco3VUOQmG-57" target="znNDBFQhQJIco3VUOQmG-19">
          <mxGeometry width="50" height="50" relative="1" as="geometry">
            <mxPoint x="816" y="810" as="sourcePoint" />
            <mxPoint x="818" y="589" as="targetPoint" />
            <Array as="points">
              <mxPoint x="960" y="770" />
              <mxPoint x="960" y="320" />
            </Array>
          </mxGeometry>
        </mxCell>
      </root>
    </mxGraphModel>
  </diagram>
</mxfile>
